<svg width="162" height="237" viewBox="0 0 162 237" fill="none" xmlns="http://www.w3.org/2000/svg">
<path d="M81 6.10352e-05C36.2186 6.10352e-05 0 37.0757 0 82.9168C0 145.104 81 236.905 81 236.905C81 236.905 162 145.104 162 82.9168C162 37.0757 125.781 6.10352e-05 81 6.10352e-05ZM23.1429 82.9168C23.1429 50.2239 49.0629 23.6906 81 23.6906C112.937 23.6906 138.857 50.2239 138.857 82.9168C138.857 117.031 105.531 168.084 81 199.948C56.9314 168.321 23.1429 116.676 23.1429 82.9168Z" fill="#EA4335"/>
<path d="M83.558 112.218C96.7431 112.218 107.432 101.053 107.432 87.2809C107.432 73.5083 96.7431 62.3435 83.558 62.3435C70.3729 62.3435 59.6843 73.5083 59.6843 87.2809C59.6843 101.053 70.3729 112.218 83.558 112.218Z" fill="#EA4335"/>
</svg>