<svg width="32" height="32" viewBox="0 0 32 32" fill="none" xmlns="http://www.w3.org/2000/svg">
<path d="M16 7.33331L15.28 8.02665C15.3733 8.12343 15.4851 8.20041 15.6088 8.25299C15.7325 8.30557 15.8656 8.33267 16 8.33267C16.1344 8.33267 16.2675 8.30557 16.3912 8.25299C16.5149 8.20041 16.6267 8.12343 16.72 8.02665L16 7.33331ZM12.568 24.4293C10.5467 22.836 8.33734 21.28 6.584 19.3066C4.86667 17.3706 3.66667 15.1133 3.66667 12.1826H1.66667C1.66667 15.7373 3.14667 18.4493 5.08934 20.6346C6.996 22.7813 9.428 24.5013 11.3293 26L12.568 24.4293ZM3.66667 12.1826C3.66667 9.31598 5.28667 6.91065 7.49867 5.89865C9.648 4.91598 12.536 5.17598 15.28 8.02665L16.72 6.64131C13.4667 3.25865 9.68534 2.69998 6.66667 4.07998C3.71467 5.43065 1.66667 8.56665 1.66667 12.1826H3.66667ZM11.3293 26C12.0133 26.5386 12.7467 27.112 13.4893 27.5466C14.232 27.9813 15.08 28.3333 16 28.3333V26.3333C15.5867 26.3333 15.1013 26.1733 14.4987 25.82C13.8947 25.468 13.2693 24.9826 12.568 24.4293L11.3293 26ZM20.6707 26C22.572 24.5 25.004 22.7826 26.9107 20.6346C28.8533 18.448 30.3333 15.7373 30.3333 12.1826H28.3333C28.3333 15.1133 27.1333 17.3706 25.416 19.3066C23.6627 21.28 21.4533 22.836 19.432 24.4293L20.6707 26ZM30.3333 12.1826C30.3333 8.56665 28.2867 5.43065 25.3333 4.07998C22.3147 2.69998 18.536 3.25865 15.28 6.63998L16.72 8.02665C19.464 5.17731 22.352 4.91598 24.5013 5.89865C26.7133 6.91065 28.3333 9.31465 28.3333 12.1826H30.3333ZM19.432 24.4293C18.7307 24.9826 18.1053 25.468 17.5013 25.82C16.8973 26.172 16.4133 26.3333 16 26.3333V28.3333C16.92 28.3333 17.768 27.98 18.5107 27.5466C19.2547 27.112 19.9867 26.5386 20.6707 26L19.432 24.4293Z" fill="black"/>
</svg>